<svg width="200" height="200" viewBox="0 0 200 200" fill="none" xmlns="http://www.w3.org/2000/svg">
<rect width="200" height="200" rx="56" fill="url(#paint0_linear_496_8)"/>
<path d="M104.219 99.0067L118.441 73.4067C120.219 70.2051 121.109 68.6043 122.497 67.5747C122.953 67.2364 123.444 66.9477 123.961 66.7133C125.535 66 127.366 66 131.029 66H142.527C152.132 66 156.934 66 159.314 68.6078C160.063 69.4294 160.633 70.3983 160.988 71.4527C162.112 74.7992 159.779 78.9972 155.115 87.3933L135.143 123.342L135.143 123.342C130.24 132.168 127.788 136.581 124.245 137.347C123.131 137.587 121.98 137.587 120.866 137.347C117.323 136.581 114.871 132.168 109.968 123.342L109.968 123.342L104.219 112.993C102.535 109.962 101.693 108.447 101.526 106.81C101.471 106.271 101.471 105.729 101.526 105.19C101.693 103.553 102.535 102.038 104.219 99.0067Z" fill="#F9F3FE"/>
<path fill-rule="evenodd" clip-rule="evenodd" d="M51.8018 110.583C52.1649 111.275 52.6025 112.063 53.1194 112.993L58.8686 123.342C63.7721 132.168 66.2238 136.581 69.7673 137.347C70.8806 137.587 72.0323 137.587 73.1456 137.347C76.6891 136.581 79.1409 132.168 84.0443 123.342L93.8193 105.747C93.9822 105.454 94.148 105.155 94.3168 104.851C94.4804 104.557 94.6411 104.268 94.7987 103.984L104.016 87.3933L104.016 87.3932C108.68 78.9972 111.012 74.7992 109.888 71.4527C109.534 70.3983 108.964 69.4294 108.214 68.6078C105.835 66 101.033 66 91.4279 66H79.9295C78.9337 66 78.0733 66 77.3167 66.0143C75.6012 66 73.6623 66 71.4565 66C62.3385 66 57.7795 66 54.7197 67.0124C45.199 70.1626 39.4832 79.8767 41.3531 89.7292C41.954 92.8956 44.1681 96.8808 48.5962 104.851C49.8082 107.033 50.8623 108.93 51.8018 110.583Z" fill="#F9F3FE"/>
<defs>
<linearGradient id="paint0_linear_496_8" x1="29.7184" y1="5.29314" x2="233.192" y2="134.002" gradientUnits="userSpaceOnUse">
<stop stop-color="#9013FE"/>
<stop offset="1" stop-color="#6610F2"/>
</linearGradient>
</defs>
</svg>
